<?xml version="1.0" standalone="no"?>
<!DOCTYPE svg PUBLIC "-//W3C//DTD SVG 20010904//EN"
 "http://www.w3.org/TR/2001/REC-SVG-20010904/DTD/svg10.dtd">
<svg version="1.0" xmlns="http://www.w3.org/2000/svg"
 width="2400.000000pt" height="1800.000000pt" viewBox="0 0 2400.000000 1800.000000"
 preserveAspectRatio="xMidYMid meet">
<metadata>
Created by potrace 1.16, written by Peter Selinger 2001-2019
</metadata>
<g transform="translate(0.000000,1800.000000) scale(0.100000,-0.100000)"
fill="#000000" stroke="none">
<path d="M11133 13118 c-24 -39 -63 -124 -63 -137 -1 -9 -9 -34 -20 -56 -11
-22 -19 -55 -20 -73 0 -18 -5 -42 -11 -54 -6 -11 -15 -50 -20 -87 -5 -36 -14
-79 -19 -96 -6 -16 -14 -79 -20 -140 -5 -60 -15 -156 -21 -212 -11 -84 -11
-122 0 -205 8 -57 17 -193 21 -303 5 -158 10 -206 23 -230 9 -16 17 -37 17
-46 0 -9 7 -22 15 -29 8 -7 15 -21 15 -31 0 -9 6 -24 13 -31 7 -7 25 -35 41
-61 15 -26 70 -89 122 -140 52 -50 94 -99 94 -108 0 -9 -11 -36 -25 -60 -13
-24 -31 -57 -38 -74 -8 -16 -28 -46 -45 -65 -17 -19 -44 -50 -59 -69 -15 -19
-119 -127 -229 -240 -279 -285 -292 -299 -329 -357 -18 -27 -45 -61 -59 -75
-14 -13 -26 -28 -26 -33 0 -5 -16 -28 -35 -52 -19 -23 -35 -48 -35 -56 0 -7
-14 -29 -31 -47 -17 -19 -35 -43 -40 -55 -5 -12 -27 -46 -48 -76 -22 -30 -56
-89 -76 -130 -20 -41 -45 -92 -56 -112 -10 -20 -19 -46 -19 -56 0 -11 -7 -25
-15 -32 -8 -7 -15 -22 -15 -34 0 -12 -6 -30 -14 -41 -7 -11 -16 -38 -20 -59
-4 -22 -14 -49 -22 -60 -8 -11 -14 -38 -14 -59 0 -21 -5 -48 -12 -60 -38 -69
-61 -500 -33 -612 8 -34 15 -77 15 -97 0 -20 7 -52 15 -71 8 -20 15 -48 15
-62 0 -14 9 -42 20 -62 11 -21 20 -45 20 -54 0 -9 7 -22 15 -29 8 -7 15 -21
15 -31 0 -18 -11 -19 -217 -19 -172 0 -224 -3 -246 -15 -16 -8 -52 -17 -80
-21 -29 -4 -61 -13 -72 -20 -11 -8 -34 -14 -51 -14 -17 0 -37 -7 -44 -15 -7
-8 -23 -15 -37 -15 -13 0 -45 -9 -71 -21 -102 -45 -198 -93 -210 -106 -7 -7
-20 -13 -28 -13 -8 0 -17 -7 -20 -15 -4 -8 -12 -15 -20 -15 -7 0 -17 -6 -21
-13 -4 -7 -35 -35 -68 -61 -33 -27 -64 -56 -70 -66 -5 -10 -29 -39 -52 -65
-24 -25 -46 -58 -49 -73 -4 -15 -11 -33 -17 -40 -28 -35 -30 -236 -3 -265 6
-7 18 -25 26 -41 29 -56 35 -66 41 -66 4 0 24 -16 45 -35 22 -19 48 -38 59
-41 11 -4 22 -9 25 -13 5 -6 60 -33 143 -70 26 -11 58 -21 71 -21 13 0 39 -7
59 -15 62 -26 246 -22 281 6 70 55 69 54 74 117 l4 60 -48 46 c-27 25 -55 46
-62 46 -24 0 -147 71 -174 101 -40 43 -40 113 1 154 39 40 56 53 83 65 13 6
30 14 38 18 52 29 87 43 123 48 23 4 51 13 62 20 11 8 39 14 63 14 24 0 55 6
70 14 15 7 74 16 132 20 58 3 125 11 150 17 25 6 137 11 250 12 l205 2 50 -32
c28 -17 62 -35 78 -38 15 -4 27 -11 27 -16 0 -5 9 -9 20 -9 11 0 46 -9 77 -20
49 -17 83 -20 233 -20 130 0 182 4 202 14 14 8 46 17 70 21 24 4 52 14 63 21
11 8 34 14 52 14 21 0 50 12 81 33 26 18 52 36 59 40 17 11 43 -21 43 -53 0
-15 6 -39 13 -52 18 -35 88 -101 127 -119 89 -42 111 -48 200 -59 169 -21 190
-22 203 -12 7 5 37 13 67 17 55 8 110 35 144 74 20 22 55 28 72 12 5 -5 36
-19 69 -30 83 -29 197 -29 265 1 27 12 50 25 50 30 0 4 7 8 15 8 9 0 29 14 45
30 29 29 30 35 30 118 0 113 -23 168 -87 203 -51 28 -56 40 -42 94 11 39 26
118 53 275 8 41 18 95 24 120 6 25 14 90 18 145 4 55 13 112 20 127 8 15 14
56 14 92 0 36 6 85 14 108 8 24 17 106 20 183 3 77 11 158 18 180 14 47 18
1044 5 1260 -4 72 -12 195 -17 275 -5 80 -9 170 -9 200 l-1 55 69 53 c111 84
230 224 266 312 4 8 15 33 26 56 10 23 19 51 19 64 0 12 6 45 14 73 9 31 17
127 20 240 4 104 7 191 8 195 7 27 -16 442 -27 502 -7 41 -18 100 -24 130 -19
105 -32 165 -43 195 -5 17 -13 47 -18 67 -4 21 -12 43 -17 50 -6 7 -14 27 -17
45 -4 17 -14 37 -22 44 -8 6 -14 17 -14 24 0 17 -33 45 -54 45 -9 0 -29 -9
-44 -19 -15 -10 -58 -39 -97 -64 -38 -25 -81 -55 -95 -67 -14 -12 -50 -42 -80
-67 -89 -75 -218 -213 -263 -281 -37 -56 -45 -63 -67 -57 -14 3 -90 11 -169
16 -135 9 -360 1 -448 -17 -28 -5 -33 -3 -33 13 0 11 -9 30 -20 43 -11 13 -20
27 -20 33 0 17 -139 185 -214 259 -87 84 -86 83 -146 123 -25 17 -46 33 -48
38 -2 4 -9 7 -16 7 -8 0 -25 9 -39 20 -28 22 -91 27 -104 8z m582 -1107 c271
-134 270 -539 -3 -673 -59 -29 -76 -33 -147 -33 -71 0 -88 4 -147 33 -182 89
-258 315 -169 503 86 182 291 256 466 170z m1067 -41 c76 -28 159 -104 195
-178 37 -76 39 -181 4 -260 -31 -69 -121 -153 -198 -183 -82 -32 -224 -32
-305 0 -76 30 -159 106 -195 179 -37 75 -39 182 -6 254 44 95 139 172 253 205
62 18 182 10 252 -17z"/>
<path d="M11529 11850 c-45 -48 -69 -118 -69 -205 0 -87 24 -157 69 -205 32
-34 44 -40 79 -40 35 0 45 5 76 42 90 105 89 312 -3 408 -31 33 -45 40 -76 40
-31 0 -45 -7 -76 -40z"/>
<path d="M12702 11784 c-85 -59 -95 -267 -17 -349 88 -94 198 23 182 194 -8
98 -59 171 -117 171 -14 0 -36 -7 -48 -16z"/>
</g>
</svg>
